<svg width="1440" height="900" viewBox="0 0 1440 900" fill="none" xmlns="http://www.w3.org/2000/svg">
  <defs>
    <linearGradient id="bg" x1="0" y1="0" x2="1440" y2="900" gradientUnits="userSpaceOnUse">
      <stop stop-color="#080B12"/><stop offset="1" stop-color="#111523"/>
    </linearGradient>
    <linearGradient id="red" x1="210" y1="0" x2="1130" y2="0" gradientUnits="userSpaceOnUse">
      <stop stop-color="#FF4B4B"/><stop offset="1" stop-color="#F9735A"/>
    </linearGradient>
    <linearGradient id="green" x1="0" y1="0" x2="1" y2="1"><stop stop-color="#C9FF68"/><stop offset="1" stop-color="#76E7A7"/></linearGradient>
    <filter id="shadow" x="-20%" y="-20%" width="140%" height="140%"><feDropShadow dx="0" dy="16" stdDeviation="20" flood-color="#000" flood-opacity=".25"/></filter>
  </defs>
  <rect width="1440" height="900" rx="28" fill="url(#bg)"/>
  <rect x="0" y="0" width="86" height="900" fill="#0A0D15"/>
  <rect x="85" y="0" width="1" height="900" fill="#FFFFFF" fill-opacity=".07"/>
  <rect x="22" y="23" width="42" height="42" rx="13" fill="#FF4B4B"/>
  <path d="M33 43.5l7 7 13-15" stroke="white" stroke-width="3" stroke-linecap="round" stroke-linejoin="round"/>
  <g fill="#FFFFFF" fill-opacity=".35">
    <rect x="28" y="113" width="30" height="30" rx="9"/><rect x="28" y="171" width="30" height="30" rx="9"/>
    <rect x="28" y="287" width="30" height="30" rx="9"/><rect x="28" y="345" width="30" height="30" rx="9"/>
  </g>
  <rect x="18" y="219" width="50" height="50" rx="14" fill="#FF4B4B" fill-opacity=".15"/>
  <circle cx="43" cy="244" r="10" stroke="#FF6969" stroke-width="3"/><circle cx="43" cy="244" r="3" fill="#FF6969"/>
  <rect x="26" y="829" width="34" height="34" rx="17" fill="#2C3342"/><text x="43" y="851" text-anchor="middle" fill="white" font-size="12" font-family="Arial" font-weight="700">DZ</text>

  <rect x="86" y="0" width="1354" height="86" fill="#0D1019"/>
  <text x="122" y="36" fill="#8E96A8" font-size="12" font-family="Arial" font-weight="700" letter-spacing="1.5">D ZONE / OPERATIONS</text>
  <text x="122" y="66" fill="white" font-size="25" font-family="Arial" font-weight="700">Goals</text>
  <rect x="1134" y="22" width="136" height="42" rx="21" fill="#171C29" stroke="#FFFFFF" stroke-opacity=".1"/>
  <circle cx="1160" cy="43" r="5" fill="#8DFA95"/><text x="1175" y="48" fill="#DCE2EF" font-size="13" font-family="Arial" font-weight="700">Live data</text>
  <rect x="1282" y="22" width="120" height="42" rx="21" fill="#FF4B4B"/>
  <text x="1342" y="48" text-anchor="middle" fill="white" font-size="13" font-family="Arial" font-weight="700">+ New goal</text>

  <g filter="url(#shadow)">
    <rect x="122" y="118" width="1290" height="116" rx="20" fill="#151A26" stroke="#FFFFFF" stroke-opacity=".08"/>
  </g>
  <rect x="144" y="141" width="48" height="48" rx="14" fill="#C9FF68" fill-opacity=".12"/>
  <path d="M156 165l8 8 16-20" stroke="#C9FF68" stroke-width="3" stroke-linecap="round" stroke-linejoin="round"/>
  <text x="211" y="154" fill="#C9FF68" font-size="11" font-family="Arial" font-weight="700" letter-spacing="1.7">AI ACCOUNTABILITY BRIEF</text>
  <text x="211" y="181" fill="white" font-size="18" font-family="Arial" font-weight="700">Four revenue goals are measuring automatically.</text>
  <text x="211" y="207" fill="#8E96A8" font-size="14" font-family="Arial">Amazon has the largest dollar gap. Protect the 18% margin guardrail while closing it.</text>
  <rect x="1052" y="143" width="156" height="62" rx="14" fill="#0E121C"/>
  <text x="1071" y="163" fill="#8E96A8" font-size="10" font-family="Arial" font-weight="700" letter-spacing="1.2">GOAL HEALTH</text>
  <text x="1071" y="191" fill="white" font-size="23" font-family="Arial" font-weight="700">4 <tspan fill="#8E96A8" font-size="13">on track</tspan></text>
  <rect x="1220" y="143" width="166" height="62" rx="14" fill="#0E121C"/>
  <text x="1239" y="163" fill="#8E96A8" font-size="10" font-family="Arial" font-weight="700" letter-spacing="1.2">AUTO MEASURED</text>
  <text x="1239" y="191" fill="white" font-size="15" font-family="Arial" font-weight="700">9:00 PM today</text>

  <text x="122" y="282" fill="white" font-size="18" font-family="Arial" font-weight="700">August revenue scorecard</text>
  <text x="122" y="307" fill="#7C8598" font-size="13" font-family="Arial">74% of the month elapsed · synced from connected commerce data</text>
  <rect x="1231" y="267" width="181" height="37" rx="18.5" fill="#151A26" stroke="#FFFFFF" stroke-opacity=".08"/>
  <text x="1322" y="290" text-anchor="middle" fill="#B8C0CF" font-size="12" font-family="Arial" font-weight="700">ON TRACK · 4 GOALS</text>

  <!-- Amazon -->
  <rect x="122" y="330" width="1290" height="119" rx="18" fill="#131824" stroke="#FFFFFF" stroke-opacity=".07"/>
  <rect x="122" y="330" width="4" height="119" rx="2" fill="#FF5A5F"/>
  <rect x="146" y="350" width="42" height="42" rx="12" fill="#FF9E49" fill-opacity=".12"/>
  <text x="167" y="376" text-anchor="middle" fill="#FFB067" font-size="14" font-family="Arial" font-weight="800">A</text>
  <text x="207" y="365" fill="white" font-size="16" font-family="Arial" font-weight="700">Amazon sales</text>
  <text x="207" y="390" fill="#8992A6" font-size="12" font-family="Arial">August 2026 · Owner: Commerce team</text>
  <rect x="207" y="411" width="720" height="7" rx="3.5" fill="#252B39"/><rect x="207" y="411" width="424" height="7" rx="3.5" fill="url(#red)"/>
  <rect x="739" y="405" width="2" height="19" fill="#FFFFFF" fill-opacity=".45"/>
  <text x="954" y="365" fill="#8E96A8" font-size="11" font-family="Arial" font-weight="700">CURRENT</text>
  <text x="954" y="390" fill="white" font-size="19" font-family="Arial" font-weight="700">$441,571 <tspan fill="#687185" font-size="13">/ $750,000</tspan></text>
  <rect x="1183" y="350" width="112" height="28" rx="14" fill="#C9FF68" fill-opacity=".1"/><text x="1239" y="368" text-anchor="middle" fill="#C9FF68" font-size="11" font-family="Arial" font-weight="700">59% COMPLETE</text>
  <rect x="1304" y="350" width="84" height="28" rx="14" fill="#1B2230"/><text x="1346" y="368" text-anchor="middle" fill="#B8C0CF" font-size="11" font-family="Arial" font-weight="700">18% MARGIN</text>
  <text x="954" y="421" fill="#70798C" font-size="11" font-family="Arial">Margin guardrail ≥ 18%</text>

  <!-- eBay -->
  <rect x="122" y="461" width="1290" height="119" rx="18" fill="#131824" stroke="#FFFFFF" stroke-opacity=".07"/>
  <rect x="122" y="461" width="4" height="119" rx="2" fill="#5D93FF"/>
  <rect x="146" y="481" width="42" height="42" rx="12" fill="#5D93FF" fill-opacity=".12"/>
  <text x="167" y="507" text-anchor="middle" fill="#7CA7FF" font-size="13" font-family="Arial" font-weight="800">e</text>
  <text x="207" y="496" fill="white" font-size="16" font-family="Arial" font-weight="700">eBay sales</text><text x="207" y="521" fill="#8992A6" font-size="12" font-family="Arial">August 2026 · Owner: Marketplace team</text>
  <rect x="207" y="542" width="720" height="7" rx="3.5" fill="#252B39"/><rect x="207" y="542" width="324" height="7" rx="3.5" fill="#5D93FF"/><rect x="739" y="536" width="2" height="19" fill="#FFFFFF" fill-opacity=".45"/>
  <text x="954" y="496" fill="#8E96A8" font-size="11" font-family="Arial" font-weight="700">CURRENT</text><text x="954" y="521" fill="white" font-size="19" font-family="Arial" font-weight="700">$136,446 <tspan fill="#687185" font-size="13">/ $300,000</tspan></text>
  <rect x="1183" y="481" width="112" height="28" rx="14" fill="#C9FF68" fill-opacity=".1"/><text x="1239" y="499" text-anchor="middle" fill="#C9FF68" font-size="11" font-family="Arial" font-weight="700">45% COMPLETE</text><rect x="1304" y="481" width="84" height="28" rx="14" fill="#1B2230"/><text x="1346" y="499" text-anchor="middle" fill="#B8C0CF" font-size="11" font-family="Arial" font-weight="700">11.5% MIN</text>
  <text x="954" y="552" fill="#70798C" font-size="11" font-family="Arial">Margin guardrail ≥ 11.5%</text>

  <!-- Walmart -->
  <rect x="122" y="592" width="1290" height="119" rx="18" fill="#131824" stroke="#FFFFFF" stroke-opacity=".07"/>
  <rect x="122" y="592" width="4" height="119" rx="2" fill="#40B8FF"/>
  <rect x="146" y="612" width="42" height="42" rx="12" fill="#40B8FF" fill-opacity=".12"/><text x="167" y="638" text-anchor="middle" fill="#64C7FF" font-size="13" font-family="Arial" font-weight="800">W</text>
  <text x="207" y="627" fill="white" font-size="16" font-family="Arial" font-weight="700">Walmart sales</text><text x="207" y="652" fill="#8992A6" font-size="12" font-family="Arial">August 2026 · Owner: Marketplace team</text>
  <rect x="207" y="673" width="720" height="7" rx="3.5" fill="#252B39"/><rect x="207" y="673" width="274" height="7" rx="3.5" fill="#40B8FF"/><rect x="739" y="667" width="2" height="19" fill="#FFFFFF" fill-opacity=".45"/>
  <text x="954" y="627" fill="#8E96A8" font-size="11" font-family="Arial" font-weight="700">CURRENT</text><text x="954" y="652" fill="white" font-size="19" font-family="Arial" font-weight="700">$57,297 <tspan fill="#687185" font-size="13">/ $150,000</tspan></text>
  <rect x="1183" y="612" width="112" height="28" rx="14" fill="#C9FF68" fill-opacity=".1"/><text x="1239" y="630" text-anchor="middle" fill="#C9FF68" font-size="11" font-family="Arial" font-weight="700">38% COMPLETE</text><rect x="1304" y="612" width="84" height="28" rx="14" fill="#1B2230"/><text x="1346" y="630" text-anchor="middle" fill="#B8C0CF" font-size="11" font-family="Arial" font-weight="700">20.5% MIN</text>
  <text x="954" y="683" fill="#70798C" font-size="11" font-family="Arial">Margin guardrail ≥ 20.5%</text>

  <!-- Storefront -->
  <rect x="122" y="723" width="1290" height="119" rx="18" fill="#131824" stroke="#FFFFFF" stroke-opacity=".07"/>
  <rect x="122" y="723" width="4" height="119" rx="2" fill="#9A70FF"/>
  <rect x="146" y="743" width="42" height="42" rx="12" fill="#9A70FF" fill-opacity=".12"/><path d="M156 766h22l-2 12h-18l-2-12zm3-5h16l3 5h-22l3-5z" stroke="#B596FF" stroke-width="1.7"/>
  <text x="207" y="758" fill="white" font-size="16" font-family="Arial" font-weight="700">Storefront sales</text><text x="207" y="783" fill="#8992A6" font-size="12" font-family="Arial">August 2026 · Owner: Ecommerce team</text>
  <rect x="207" y="804" width="720" height="7" rx="3.5" fill="#252B39"/><rect x="207" y="804" width="322" height="7" rx="3.5" fill="#9A70FF"/><rect x="739" y="798" width="2" height="19" fill="#FFFFFF" fill-opacity=".45"/>
  <text x="954" y="758" fill="#8E96A8" font-size="11" font-family="Arial" font-weight="700">CURRENT</text><text x="954" y="783" fill="white" font-size="19" font-family="Arial" font-weight="700">$22,344 <tspan fill="#687185" font-size="13">/ $50,000</tspan></text>
  <rect x="1183" y="743" width="112" height="28" rx="14" fill="#C9FF68" fill-opacity=".1"/><text x="1239" y="761" text-anchor="middle" fill="#C9FF68" font-size="11" font-family="Arial" font-weight="700">45% COMPLETE</text><rect x="1304" y="743" width="84" height="28" rx="14" fill="#1B2230"/><text x="1346" y="761" text-anchor="middle" fill="#B8C0CF" font-size="11" font-family="Arial" font-weight="700">25.5% MIN</text>
  <text x="954" y="814" fill="#70798C" font-size="11" font-family="Arial">Margin guardrail ≥ 25.5%</text>
  <text x="1390" y="874" text-anchor="end" fill="#596174" font-size="10" font-family="Arial" font-weight="700" letter-spacing="1.4">REPRESENTATIVE ONEAPP VIEW · LIVE D ZONE GOAL VALUES</text>
</svg>
